<svg xmlns="http://www.w3.org/2000/svg" viewBox="0 0 18 10">
  <!-- 몸통 (HAPPY 픽셀맵) -->
  <rect x="2" y="0" width="10" height="2" fill="#DA7756"/>
  <rect x="2" y="2" width="10" height="1" fill="#DA7756"/>
  <rect x="2" y="3" width="2" height="1" fill="#DA7756"/>
  <rect x="5" y="3" width="4" height="1" fill="#DA7756"/>
  <rect x="10" y="3" width="2" height="1" fill="#DA7756"/>
  <rect x="0" y="4" width="14" height="2" fill="#DA7756"/>
  <rect x="2" y="6" width="10" height="2" fill="#DA7756"/>
  <rect x="3" y="8" width="1" height="2" fill="#DA7756"/>
  <rect x="5" y="8" width="1" height="2" fill="#DA7756"/>
  <rect x="8" y="8" width="1" height="2" fill="#DA7756"/>
  <rect x="10" y="8" width="1" height="2" fill="#DA7756"/>
  <!-- 하트 -->
  <g transform="translate(14.5,0.5) scale(0.35)">
    <rect x="1" y="0" width="2" height="1" fill="#E85050"/>
    <rect x="5" y="0" width="2" height="1" fill="#E85050"/>
    <rect x="0" y="1" width="4" height="1" fill="#E85050"/>
    <rect x="4" y="1" width="4" height="1" fill="#E85050"/>
    <rect x="0" y="2" width="8" height="1" fill="#E85050"/>
    <rect x="1" y="3" width="6" height="1" fill="#E85050"/>
    <rect x="2" y="4" width="4" height="1" fill="#E85050"/>
    <rect x="3" y="5" width="2" height="1" fill="#E85050"/>
  </g>
</svg>
